<svg xmlns="http://www.w3.org/2000/svg" viewBox="0 0 32 32" width="32" height="32">
  <rect width="32" height="32" rx="8" fill="#25D366"/>
  <path d="M16 6a10 10 0 0 0-8.5 15.3L6 26l4.8-1.4A10 10 0 1 0 16 6zm5.8 14.1c-.2.7-1.3 1.3-1.8 1.4-.5.1-1.1.2-3.6-.8-3.2-1.3-5.2-4.6-5.4-4.8-.2-.2-1.3-1.7-1.3-3.3 0-1.6.8-2.3 1.1-2.7.3-.3.7-.4 1-.4.2 0 .5 0 .7.1.2.1.5 1.1.7 1.6.2.5.2.8 0 1.1-.1.2-.2.4-.4.6-.2.2-.4.4-.2.8.5.8 1.4 1.8 2.5 2.5.4.3.8.4 1.1.2.3-.2.7-.8 1-1.1.2-.3.5-.3.8-.2.3.1 2 .9 2.3 1.1.4.2.6.3.7.5.1.2.1.9-.1 1.6z" fill="#FFF"/>
</svg>
